<?xml version="1.0" encoding="utf-8"?>
<!-- Generator: Adobe Illustrator 16.0.0, SVG Export Plug-In . SVG Version: 6.00 Build 0)  -->
<!DOCTYPE svg PUBLIC "-//W3C//DTD SVG 1.1//EN" "http://www.w3.org/Graphics/SVG/1.1/DTD/svg11.dtd">
<svg version="1.1" id="图层_1" xmlns="http://www.w3.org/2000/svg" xmlns:xlink="http://www.w3.org/1999/xlink" x="0px" y="0px"
	 width="200px" height="200px" viewBox="0 0 200 200" enable-background="new 0 0 200 200" xml:space="preserve">
<path id="mark_3_" fill="#02b3e4" d="M74.526,18.191L21.906,48.019l0.004,68.705l0,0c-0.098,31.555,25.709,57.21,57.639,57.311
	c10.557,0.029,20.465-2.735,28.996-7.598l0,0l42.623-24.205c16.813-8.618,28.328-25.959,28.39-45.978l0.004-71.753l0,0l0,0
	l-10.433-6.029L126.39,42.338l0.005,0.004l0,0l-0.014,74.699c-0.009,3.179-0.151,5.501-0.988,9.428
	c-1.425,5.99-3.428,10.202-3.78,10.915c-3.259-0.224-10.144-2.088-15.638-5.324c-2.742-1.578-6.007-3.916-8.949-6.668
	c-1.902-1.889-3.624-3.965-5.12-6.171c-1.51-2.227-2.81-4.603-3.853-7.065c-1.063-2.506-1.879-5.13-2.422-7.792
	c-0.557-2.738-0.681-5.56-0.676-8.391l0,0l0.035-71.748L74.526,18.191z M98.744,159.968c-2.854,1.183-5.837,2.086-8.874,2.693
	c-3.118,0.617-5.993,0.931-9.208,0.921c-3.215-0.009-6.425-0.34-9.543-0.979c-3.031-0.626-6.01-1.545-8.855-2.747
	c-2.796-1.181-5.495-2.638-8.019-4.332c-6.51-4.52-9.867-8.436-12.752-12.678c-1.7-2.501-3.157-5.177-4.335-7.948
	c-1.198-2.819-2.116-5.77-2.727-8.767c-0.626-3.08-0.743-6.257-0.735-9.435l-0.004-62.712L73.15,30.187l-0.048,65.757l0,0
	c-0.076,24.987,18.54,45.842,42.312,50.886c-0.93,1.098-1.603,2.153-2.631,3.163c-2.15,2.11-4.471,4.088-6.981,5.754
	C103.268,157.422,101.544,158.806,98.744,159.968z M167.091,104.731c-0.562,2.665-1.389,5.277-2.472,7.781
	c-2.867,6.285-7.533,11.627-11.434,15.069c-7.961,7.238-17.882,9.473-19.025,9.476c2.385-6.232,3.993-12.911,4.021-19.97l0,0
	l-0.005-68.721l0,0l29.597-17.9l0.014,65.755C167.776,99.052,167.666,101.993,167.091,104.731z"/>
</svg>
